<svg width="65" height="64" viewBox="0 0 65 64" fill="none" xmlns="http://www.w3.org/2000/svg">
<path d="M0.660034 32C0.660034 14.3269 14.9869 0 32.66 0C50.3331 0 64.66 14.3269 64.66 32C64.66 49.6731 50.3331 64 32.66 64C14.9869 64 0.660034 49.6731 0.660034 32Z" fill="#FAFAFA"/>
<g clip-path="url(#clip0_71_509)">
<path d="M32.6523 30.6595C35.5963 30.6595 37.983 28.2729 37.983 25.3288C37.983 22.3847 35.5963 19.998 32.6523 19.998C29.7082 19.998 27.3215 22.3847 27.3215 25.3288C27.3215 28.2729 29.7082 30.6595 32.6523 30.6595Z" stroke="#1F2937" stroke-width="1.5" stroke-linecap="round" stroke-linejoin="round"/>
<path d="M32.6523 30.6594V39.9882M37.7791 37.3228C39.974 40.1388 41.0708 41.5474 40.4978 42.6616C40.4445 42.7646 40.3823 42.8637 40.3112 42.9587C39.5449 43.9862 37.5659 43.9862 33.6078 43.9862H31.6954C27.7373 43.9862 25.7596 43.9862 24.9933 42.9587C24.9231 42.865 24.8607 42.7656 24.8068 42.6616C24.2337 41.5461 25.3305 40.1388 27.5254 37.3228" stroke="#1F2937" stroke-width="1.5" stroke-linecap="round" stroke-linejoin="round"/>
</g>
<defs>
<clipPath id="clip0_71_509">
<rect width="31.9844" height="31.9844" fill="white" transform="translate(16.66 16)"/>
</clipPath>
</defs>
</svg>
