<svg width="65" height="64" viewBox="0 0 65 64" fill="none" xmlns="http://www.w3.org/2000/svg">
<path d="M0.660034 32C0.660034 14.3269 14.9869 0 32.66 0C50.3331 0 64.66 14.3269 64.66 32C64.66 49.6731 50.3331 64 32.66 64C14.9869 64 0.660034 49.6731 0.660034 32Z" fill="#FAFAFA"/>
<g clip-path="url(#clip0_71_501)">
<path d="M38.7425 45.319C39.0965 45.3211 39.4473 45.2526 39.7745 45.1176C40.1017 44.9826 40.3987 44.7838 40.6483 44.5328L44.2598 40.9212C44.5081 40.6715 44.6474 40.3337 44.6474 39.9816C44.6474 39.6296 44.5081 39.2918 44.2598 39.0421L38.9291 33.7114C38.6794 33.4632 38.3417 33.3238 37.9896 33.3238C37.6375 33.3238 37.2997 33.4632 37.05 33.7114L34.9177 35.8303C33.4415 35.4367 32.0742 34.7121 30.9197 33.7114C29.9209 32.5555 29.1965 31.1887 28.8007 29.7133L30.9197 27.581C31.1679 27.3313 31.3072 26.9936 31.3072 26.6415C31.3072 26.2894 31.1679 25.9516 30.9197 25.702L25.589 20.3712C25.3393 20.123 25.0015 19.9837 24.6494 19.9837C24.2974 19.9837 23.9596 20.123 23.7099 20.3712L20.1116 23.9961C19.8606 24.2457 19.6618 24.5427 19.5268 24.8699C19.3918 25.1971 19.3233 25.5479 19.3254 25.9019C19.4463 31.0224 21.4924 35.9093 25.0559 39.5885C28.7351 43.152 33.622 45.1981 38.7425 45.319ZM24.6561 23.2098L28.1077 26.6615L26.3886 28.3806C26.2258 28.5332 26.1038 28.7241 26.034 28.936C25.9641 29.1479 25.9486 29.3739 25.9888 29.5934C26.4858 31.8199 27.5405 33.8835 29.0539 35.5905C30.7609 37.1039 32.8245 38.1586 35.051 38.6556C35.2671 38.7008 35.4911 38.6916 35.7028 38.6288C35.9145 38.566 36.1072 38.4515 36.2638 38.2958L37.9829 36.5367L41.4346 39.9883L38.7692 42.6537C34.3497 42.5399 30.1328 40.7761 26.9483 37.7094C23.8737 34.5237 22.1048 30.3012 21.9907 25.8752L24.6561 23.2098ZM43.3136 30.6595H45.979C46.0136 29.075 45.7269 27.4998 45.1364 26.029C44.5459 24.5582 43.6637 23.2222 42.543 22.1014C41.4222 20.9807 40.0862 20.0985 38.6154 19.508C37.1446 18.9175 35.5694 18.6308 33.9849 18.6654V21.3308C35.2215 21.288 36.4537 21.5 37.6048 21.9537C38.756 22.4074 39.8015 23.093 40.6765 23.9679C41.5514 24.8429 42.237 25.8884 42.6907 27.0396C43.1444 28.1907 43.3564 29.4229 43.3136 30.6595Z" fill="#1F2937"/>
<path d="M33.9849 26.6615C36.7835 26.6615 37.9829 27.8609 37.9829 30.6595H40.6483C40.6483 26.3683 38.2761 23.9961 33.9849 23.9961V26.6615Z" fill="#1F2937"/>
</g>
<defs>
<clipPath id="clip0_71_501">
<rect width="31.9844" height="31.9844" fill="white" transform="translate(16.66 16)"/>
</clipPath>
</defs>
</svg>
