<svg width="65" height="64" viewBox="0 0 65 64" fill="none" xmlns="http://www.w3.org/2000/svg">
<path d="M0.669983 32C0.669983 14.3269 14.9969 0 32.67 0C50.3431 0 64.67 14.3269 64.67 32C64.67 49.6731 50.3431 64 32.67 64C14.9969 64 0.669983 49.6731 0.669983 32Z" fill="#FAFAFA"/>
<g clip-path="url(#clip0_71_518)">
<path d="M26.0154 18.5613L19.3487 31.8923C20.8355 33.4103 22.6933 35.5655 24.2476 37.9768C25.7781 40.3569 27.0025 42.9556 27.1899 45.4232H44.0754L43.1133 18.5613H26.0154ZM26.915 19.9981H41.283L41.7827 31.9922H21.2927L26.915 19.9981ZM32.3373 21.1219L23.5292 30.7928L37.8659 21.1219H32.3373ZM37.6597 33.429H41.6578V34.5535H37.6597V33.429Z" fill="#1F2937"/>
</g>
<defs>
<clipPath id="clip0_71_518">
<rect width="31.9844" height="31.9844" fill="white" transform="translate(16.67 16)"/>
</clipPath>
</defs>
</svg>
