<svg width="20" height="20" viewBox="0 0 20 20" fill="none" xmlns="http://www.w3.org/2000/svg">
<path d="M13.7976 18.319C14.0187 18.3203 14.2379 18.2775 14.4423 18.1932C14.6468 18.1088 14.8324 17.9846 14.9883 17.8277L17.2449 15.5712C17.3999 15.4151 17.487 15.2041 17.487 14.9841C17.487 14.7641 17.3999 14.5531 17.2449 14.3971L13.9141 11.0663C13.7581 10.9113 13.5471 10.8242 13.3271 10.8242C13.1071 10.8242 12.8961 10.9113 12.74 11.0663L11.4078 12.3903C10.4854 12.1444 9.63107 11.6916 8.90971 11.0663C8.28565 10.3442 7.83304 9.49017 7.58574 8.5683L8.90971 7.23601C9.0648 7.08 9.15185 6.86895 9.15185 6.64897C9.15185 6.42899 9.0648 6.21794 8.90971 6.06193L5.57898 2.7312C5.42297 2.57611 5.21192 2.48906 4.99194 2.48906C4.77196 2.48906 4.56091 2.57611 4.4049 2.7312L2.15665 4.99609C1.9998 5.15201 1.87558 5.3376 1.79123 5.54204C1.70688 5.74648 1.66409 5.96567 1.66537 6.18683C1.74092 9.38624 3.01938 12.4397 5.24591 14.7385C7.54471 16.965 10.5981 18.2435 13.7976 18.319ZM4.9961 4.50481L7.15275 6.66146L6.07859 7.73562C5.97685 7.83092 5.90067 7.95023 5.85702 8.08262C5.81338 8.21501 5.80367 8.35624 5.82878 8.49336C6.13932 9.8845 6.79834 11.1739 7.74395 12.2404C8.8105 13.186 10.0999 13.8451 11.491 14.1556C11.6261 14.1838 11.766 14.1781 11.8983 14.1388C12.0305 14.0996 12.151 14.0281 12.2488 13.9308L13.3229 12.8316L15.4796 14.9883L13.8142 16.6536C11.0528 16.5825 8.41801 15.4805 6.42831 13.5644C4.50724 11.5739 3.40202 8.9356 3.33074 6.17018L4.9961 4.50481ZM16.6537 9.1595H18.319C18.3406 8.16945 18.1615 7.18526 17.7926 6.26627C17.4236 5.34728 16.8724 4.51251 16.1721 3.81226C15.4719 3.11202 14.6371 2.5608 13.7181 2.19183C12.7991 1.82286 11.8149 1.64377 10.8249 1.66536V3.33073C11.5975 3.304 12.3674 3.43649 13.0867 3.71995C13.806 4.00342 14.4592 4.4318 15.0059 4.97847C15.5526 5.52515 15.981 6.17842 16.2644 6.89769C16.5479 7.61696 16.6804 8.38685 16.6537 9.1595Z" fill="#FAFAFA"/>
<path d="M10.8249 6.66146C12.5735 6.66146 13.3229 7.41087 13.3229 9.15951H14.9883C14.9883 6.47827 13.5061 4.99609 10.8249 4.99609V6.66146Z" fill="#FAFAFA"/>
</svg>
